<svg width="125" height="40" viewBox="0 0 125 40" fill="none" xmlns="http://www.w3.org/2000/svg">
  <path d="M41.1641 17.9357V15.6394C41.1641 15.4863 41.3171 15.3332 41.4702 15.3332H44.0727C44.1237 15.3332 44.1748 15.2822 44.1748 15.2312V14.0575C44.1748 11.1999 45.3995 10.1283 48.3591 10.1283H52.1863C52.3394 10.1283 52.4925 10.2814 52.4925 10.4345V12.8328C52.4925 12.9859 52.3394 13.139 52.1863 13.139H48.8184C48.155 13.139 47.6447 13.6493 47.6447 14.3127V15.2822C47.6447 15.3332 47.6958 15.3843 47.7468 15.3843H52.0332C52.1863 15.3843 52.3394 15.5374 52.3394 15.6904V17.9357C52.3394 18.0888 52.1863 18.2419 52.0332 18.2419H47.7468C47.6958 18.2419 47.6447 18.2929 47.6447 18.344V29.3152C47.6447 29.4683 47.4917 29.6213 47.3386 29.6213H44.4809C44.3279 29.6213 44.1748 29.4683 44.1748 29.3152V18.344C44.1748 18.2929 44.1237 18.2419 44.0727 18.2419H41.4702C41.3171 18.1909 41.1641 18.0888 41.1641 17.9357Z" fill="#F5FCFF"></path>
  <path d="M57.445 29.6213H54.5874C54.4343 29.6213 54.2812 29.4683 54.2812 29.3152V10.4345C54.2812 10.2814 54.4343 10.1283 54.5874 10.1283H57.445C57.5981 10.1283 57.7512 10.2814 57.7512 10.4345V29.3152C57.7512 29.4683 57.5981 29.6213 57.445 29.6213Z" fill="#F5FCFF"></path>
  <path d="M76.1696 15.3844V29.6215H72.9547L72.7506 27.5293H72.4955C71.4239 29.0092 69.5358 30.0297 67.2905 30.0297C63.2082 30.0297 60.5547 27.6824 60.5547 23.0898V15.3844C60.5547 15.2313 60.7078 15.0782 60.8609 15.0782H63.7695C63.9226 15.0782 64.0757 15.2313 64.0757 15.3844V22.6305C64.0757 25.5902 65.1983 27.019 68.107 27.019C70.8626 27.019 72.7506 25.233 72.7506 22.3244V15.3844C72.7506 15.2313 72.9037 15.0782 73.0568 15.0782H75.9144C76.0165 15.0782 76.1696 15.1803 76.1696 15.3844Z" fill="#F5FCFF"></path>
  <path d="M86.8334 14.6699C91.9873 14.6699 95.3042 17.8848 95.1001 22.8346C95.1001 22.9877 94.998 23.0897 94.8449 23.0897H82.1897C82.0877 23.0897 82.0366 23.1407 82.0366 23.2428C82.3938 25.5901 84.1798 27.07 86.8334 27.07C89.0786 27.121 90.6605 26.1004 91.3749 24.5185C91.426 24.4165 91.528 24.3654 91.6301 24.3654H94.7429C94.8959 24.3654 95.049 24.5185 94.998 24.7226C94.0285 27.9375 90.9667 30.0807 86.8844 30.0297C81.9346 30.0297 78.5156 26.9169 78.5156 22.3753C78.5156 17.7317 81.8835 14.6699 86.8334 14.6699ZM91.2219 20.6913C91.3239 20.6913 91.3749 20.5893 91.3749 20.5383C90.9667 18.7012 89.2828 17.5786 86.8844 17.5786C84.5371 17.5786 82.649 18.6502 82.1897 20.5383C82.1897 20.6403 82.2407 20.6913 82.3428 20.6913H91.2219Z" fill="#F5FCFF"></path>
  <path d="M97.3984 29.3153V15.0782H100.613L100.817 17.1703H101.073C102.144 15.6905 104.032 14.6699 106.431 14.6699C110.666 14.6699 113.268 17.0173 113.268 21.6099V29.3153C113.268 29.4683 113.115 29.6214 112.962 29.6214H110.054C109.901 29.6214 109.747 29.4683 109.747 29.3153V22.0181C109.747 19.0584 108.625 17.6296 105.614 17.6296C102.756 17.6296 100.868 19.4156 100.868 22.3243V29.3153C100.868 29.4683 100.715 29.6214 100.562 29.6214H97.7046C97.5515 29.6214 97.3984 29.4683 97.3984 29.3153Z" fill="#F5FCFF"></path>
  <path d="M114.492 17.8659V15.5696C114.492 15.4165 114.645 15.2634 114.798 15.2634H117.197C117.248 15.2634 117.299 15.2124 117.299 15.1614V12.5079C117.299 12.3548 117.401 12.2527 117.503 12.2527L120.412 11.6404C120.565 11.5894 120.769 11.7424 120.769 11.8955V15.2124C120.769 15.2634 120.82 15.3145 120.871 15.3145H124.494C124.647 15.3145 124.8 15.4676 124.8 15.6206V17.8659C124.8 18.019 124.647 18.1721 124.494 18.1721H120.871C120.82 18.1721 120.769 18.2231 120.769 18.2742V25.4182C120.769 26.0816 121.279 26.5919 121.942 26.5919H124.698C124.851 26.5919 125.004 26.745 125.004 26.8981V29.2964C125.004 29.4495 124.851 29.6026 124.698 29.6026H121.534C118.523 29.6026 117.35 28.531 117.35 25.6734V18.2742C117.35 18.2231 117.299 18.1721 117.248 18.1721H114.849C114.645 18.1211 114.492 18.019 114.492 17.8659Z" fill="#F5FCFF"></path>
  <path fill-rule="evenodd" clip-rule="evenodd" d="M13.9121 17.3422C14.7056 16.5602 16.0487 17.1223 16.0487 18.2363V30.3301C16.0487 31.0182 15.7829 31.6798 15.3067 32.1766L8.96654 38.7925C8.24566 39.5447 6.97574 39.0344 6.97574 37.9926V25.5484C6.97574 24.6716 7.32733 23.8315 7.95179 23.2161L13.9121 17.3422ZM13.9417 20.2712L9.43072 24.7168C9.20806 24.9362 9.0827 25.2358 9.0827 25.5484V33.4682C9.0827 34.2496 10.0351 34.6323 10.5758 34.0681L13.7855 30.7188C13.8858 30.6142 13.9417 30.4749 13.9417 30.3301V20.2712Z" fill="#89F8FF"></path>
  <path fill-rule="evenodd" clip-rule="evenodd" d="M29.2013 18.264C29.9214 17.5333 29.4038 16.2964 28.3779 16.2964H16.3085C15.4482 16.2964 14.6224 16.635 14.0098 17.2389L7.94207 23.2199C7.14245 24.0081 7.70056 25.3693 8.82336 25.3693H21.0819C21.7966 25.3693 22.4814 25.0828 22.983 24.5738L29.2013 18.264ZM24.0339 18.4034C24.8034 18.4034 25.1916 19.331 24.6515 19.879L21.4823 23.0948C21.3767 23.202 21.2325 23.2624 21.0819 23.2624H10.9003L15.4888 18.7394C15.7073 18.5241 16.0017 18.4034 16.3085 18.4034H24.0339Z" fill="#89F8FF"></path>
  <path fill-rule="evenodd" clip-rule="evenodd" d="M6.93635 1.26725C7.72982 0.485289 9.07294 1.04738 9.07294 2.1614V14.2552C9.07294 14.9433 8.80712 15.6049 8.33099 16.1017L1.9908 22.7176C1.26992 23.4698 0 22.9595 0 21.9176V9.47345C0 8.59671 0.351589 7.75658 0.976047 7.14118L6.93635 1.26725ZM6.96598 4.19624L2.45498 8.64186C2.23232 8.86129 2.10696 9.16084 2.10696 9.47345V17.3933C2.10696 18.1747 3.05938 18.5574 3.60003 17.9932L6.80979 14.6439C6.91002 14.5393 6.96598 14.4 6.96598 14.2552V4.19624Z" fill="#89F8FF"></path>
  <path fill-rule="evenodd" clip-rule="evenodd" d="M22.2192 2.18928C22.9393 1.45858 22.4217 0.22168 21.3958 0.22168H9.32634C8.46604 0.22168 7.6403 0.560237 7.02762 1.16417L0.959936 7.14517C0.160313 7.93337 0.718421 9.29462 1.84122 9.29462H14.0998C14.8145 9.29462 15.4993 9.00804 16.0009 8.49903L22.2192 2.18928ZM17.0518 2.32864C17.8212 2.32864 18.2095 3.2563 17.6694 3.80432L14.5002 7.0201C14.3945 7.1273 14.2503 7.18766 14.0998 7.18766H3.91819L8.50671 2.66469C8.72517 2.44936 9.01959 2.32864 9.32634 2.32864H17.0518Z" fill="#89F8FF"></path>
</svg>