<svg width="301" height="300" viewBox="0 0 301 300" fill="none" xmlns="http://www.w3.org/2000/svg">
    <rect x="0.877808" width="300" height="300" rx="8.67743" fill="url(#paint0_linear_537_413)" />
    <path fill-rule="evenodd" clip-rule="evenodd"
        d="M185.825 28.607L212.279 55.0611C213.518 56.3005 215.528 56.3005 216.767 55.0611L243.221 28.607C245.22 26.6078 243.805 23.1895 240.977 23.1895H188.069C185.242 23.1895 183.826 26.6078 185.825 28.607ZM141.479 71.7928H167.717V98.3812C167.717 102.161 169.232 105.783 171.925 108.436L205.299 141.327C209.163 145.136 215.706 142.398 215.706 136.971V73.1331C215.706 68.5828 213.915 64.2152 210.721 60.9746L179.086 28.8811C178.822 28.6134 178.546 28.3745 178.26 28.1633C175.102 25.3635 171.018 23.8037 166.771 23.8037L100.95 23.8037C95.4394 23.8037 92.7405 30.5206 96.7192 34.3335L131.712 67.8684C134.34 70.3868 137.839 71.7928 141.479 71.7928ZM80.8778 40.9874V225.404C80.8778 228.909 83.7195 231.751 87.2249 231.751H198.593C203.929 231.751 206.884 225.567 203.531 221.416L131.919 132.743V78.142C131.919 76.4239 131.223 74.7792 129.989 73.5836L91.6415 36.429C87.6151 32.5277 80.8778 35.381 80.8778 40.9874ZM87.2001 237H203.21C205.205 237 207.083 237.937 208.282 239.531L228.975 267.035C232.122 271.218 229.138 277.198 223.903 277.198H66.572C61.3417 277.198 58.3561 271.227 61.4943 267.043L82.1224 239.539C83.3211 237.941 85.2023 237 87.2001 237Z"
        fill="#4414CD" />
    <path d="M131.878 231.742L131.878 132.5L206.63 225.231C208.739 227.848 206.877 231.742 203.516 231.742H131.878Z"
        fill="#2F0E8F" />
    <path
        d="M215.378 72H167.878V101.727C167.878 102.566 168.054 103.396 168.395 104.164L169.439 106.513C169.729 107.166 170.134 107.762 170.633 108.272L205.089 143.485C208.85 147.329 215.378 144.666 215.378 139.289V72Z"
        fill="#2F0E8F" />
    <defs>
        <linearGradient id="paint0_linear_537_413" x1="150.878" y1="0" x2="150.878" y2="300"
            gradientUnits="userSpaceOnUse">
            <stop stop-color="#89F8FF" />
            <stop offset="1" stop-color="#35C4FA" />
        </linearGradient>
    </defs>
</svg>